# File created by Blade
# Date/Time:  Tue Jan 27 20:07:51 2015
# Frame Rate: 120.000 fps
#------------------------------------------------------
:FULLY-SPECIFIED
:DEGREES
2307
root 6.013535 32.280034 -4.302366 -2.931724 -22.879584 -5.429877
Spine 3.307244 10.605560 1.443674
Head 29.776300 -11.060133 -0.640097
LeftShoulder -16.309057 3.543098 27.090733
LeftArm -9.660617 -23.105088 -73.030259
LeftForeArm -17.943280 -0.000000 116.534081
LeftHand 9.364796 -0.000000 -6.790523
LeftHandThumb1 -26.253704 0.000000 33.147579
RightShoulder -17.958856 -18.533479 -22.621217
RightArm 12.066332 -17.320920 84.668918
RightForeArm -16.524285 -0.000000 20.254166
RightHand 18.713834 -0.000000 0.755627
RightHandThumb1 -24.326973 -0.000000 -32.862282
LeftUpLeg 11.968870 6.068874 -4.706437
LeftLeg -3.176204 -0.000000 0.000000
LeftFoot -16.923804 16.345475 -15.381854
LeftToeBase 20.706222 -0.000000 -0.000000
RightUpLeg -35.958641 -46.409475 -8.619653
RightLeg 106.319602 -0.000000 -0.000000
RightFoot 27.861891 -23.322863 16.698362
RightToeBase 19.518417 -0.000000 -0.000000
2308
root 6.015212 32.278047 -4.301219 -2.904519 -22.917495 -5.422069
Spine 3.270397 10.619962 1.407747
Head 29.837860 -11.128460 -0.645585
LeftShoulder -16.288502 3.508668 27.109824
LeftArm -9.693266 -23.129870 -72.995654
LeftForeArm -17.951442 -0.000000 116.510514
LeftHand 9.410738 -0.000000 -6.774990
LeftHandThumb1 -26.253704 0.000000 33.147579
RightShoulder -17.964598 -18.512004 -22.618772
RightArm 12.030766 -17.295345 84.729873
RightForeArm -16.588784 -0.000000 20.243144
RightHand 18.684614 0.000000 0.356614
RightHandThumb1 -24.326973 -0.000000 -32.862282
LeftUpLeg 11.942781 6.074223 -4.727754
LeftLeg -3.170654 -0.000000 0.000000
LeftFoot -16.863413 16.397932 -15.214897
LeftToeBase 20.379948 -0.000000 -0.000000
RightUpLeg -36.003386 -46.262002 -8.678549
RightLeg 105.917110 -0.000000 -0.000000
RightFoot 27.500109 -23.479019 16.942009
RightToeBase 20.811162 -0.000000 -0.000000
2309
root 6.015747 32.277306 -4.301773 -2.862621 -22.939548 -5.424338
Spine 3.224712 10.620292 1.358787
Head 29.883498 -11.115112 -0.601863
LeftShoulder -16.281198 3.484379 27.133199
LeftArm -9.702278 -23.137116 -72.962621
LeftForeArm -17.942286 -0.000000 116.498542
LeftHand 9.423209 -0.000000 -6.763826
LeftHandThumb1 -26.253704 0.000000 33.147579
RightShoulder -18.022129 -18.638997 -22.535902
RightArm 12.182782 -17.269685 84.726870
RightForeArm -16.590742 -0.000000 20.241346
RightHand 18.672924 -0.000000 0.334496
RightHandThumb1 -24.326973 -0.000000 -32.862282
LeftUpLeg 11.893511 6.070344 -4.734077
LeftLeg -3.153617 -0.000000 0.000000
LeftFoot -16.881573 16.404955 -15.204049
LeftToeBase 20.462697 -0.000000 -0.000000
RightUpLeg -36.056962 -46.129631 -8.692844
RightLeg 105.533008 -0.000000 -0.000000
RightFoot 27.537692 -23.371295 16.552474
RightToeBase 19.000664 -0.000000 -0.000000
2310
root 6.016363 32.275714 -4.299029 -2.859364 -22.968019 -5.420734
Spine 3.211136 10.654055 1.318543
Head 29.944498 -11.168341 -0.584302
LeftShoulder -16.222225 3.466175 27.168597
LeftArm -9.707980 -23.195231 -72.979106
LeftForeArm -17.903172 -0.000000 116.491557
LeftHand 9.438084 -0.000000 -6.740661
LeftHandThumb1 -26.253704 0.000000 33.147579
RightShoulder -18.058260 -18.701929 -22.485270
RightArm 12.215537 -17.195970 84.767199
RightForeArm -16.565113 0.000000 20.283738
RightHand 18.690073 0.000000 0.864488
RightHandThumb1 -24.326973 -0.000000 -32.862282
LeftUpLeg 11.886212 6.064763 -4.746519
LeftLeg -3.136606 -0.000000 0.000000
LeftFoot -16.914344 16.433602 -15.229013
LeftToeBase 20.413710 -0.000000 -0.000000
RightUpLeg -36.046030 -45.949279 -8.764779
RightLeg 105.197764 -0.000000 -0.000000
RightFoot 27.399387 -23.364983 16.605619
RightToeBase 19.553563 -0.000000 -0.000000
2311
root 6.015534 32.274780 -4.295013 -2.878446 -22.991782 -5.421799
Spine 3.225809 10.650835 1.291666
Head 29.985593 -11.255273 -0.597212
LeftShoulder -16.192746 3.449762 27.201249
LeftArm -9.715621 -23.247794 -73.001565
LeftForeArm -17.897102 0.000000 116.484943
LeftHand 9.377472 -0.000000 -6.797994
LeftHandThumb1 -26.253704 0.000000 33.147579
RightShoulder -18.037589 -18.639346 -22.485964
RightArm 12.129401 -17.169719 84.834647
RightForeArm -16.592706 -0.000000 20.306985
RightHand 18.706283 -0.000000 0.879468
RightHandThumb1 -24.326973 -0.000000 -32.862282
LeftUpLeg 11.911335 6.041080 -4.753107
LeftLeg -3.129078 -0.000000 0.000000
LeftFoot -16.924412 16.478696 -15.190624
LeftToeBase 20.359503 -0.000000 -0.000000
RightUpLeg -35.988566 -45.762723 -8.845220
RightLeg 104.911340 -0.000000 -0.000000
RightFoot 27.600095 -23.219946 16.283981
RightToeBase 19.145618 -0.000000 -0.000000
2312
root 6.015789 32.272283 -4.288573 -2.923795 -23.026560 -5.404530
Spine 3.273226 10.658442 1.252180
Head 29.997907 -11.242959 -0.599109
LeftShoulder -16.178340 3.412148 27.240645
LeftArm -9.733350 -23.294994 -73.025767
LeftForeArm -17.899437 0.000000 116.480667
LeftHand 9.330528 -0.000000 -6.851870
LeftHandThumb1 -26.253704 0.000000 33.147579
RightShoulder -18.063670 -18.620545 -22.468071
RightArm 12.127664 -17.219934 84.861214
RightForeArm -16.585710 -0.000000 20.321221
RightHand 18.664883 -0.000000 0.934631
RightHandThumb1 -24.326973 -0.000000 -32.862282
LeftUpLeg 11.957772 6.036258 -4.778009
LeftLeg -3.130357 -0.000000 0.000000
LeftFoot -17.022877 16.534794 -15.320821
LeftToeBase 20.680853 -0.000000 -0.000000
RightUpLeg -35.898565 -45.508443 -8.999096
RightLeg 104.749582 -0.000000 -0.000000
RightFoot 27.627487 -23.119443 16.486987
RightToeBase 19.157202 -0.000000 -0.000000
2313
root 6.011987 32.272050 -4.286487 -2.942807 -23.048073 -5.415695
Spine 3.299702 10.643367 1.226291
Head 30.017197 -11.259514 -0.604952
LeftShoulder -16.162038 3.388046 27.270069
LeftArm -9.739358 -23.351861 -73.043014
LeftForeArm -17.856342 -0.000000 116.472481
LeftHand 9.333797 -0.000000 -6.945410
LeftHandThumb1 -26.253704 0.000000 33.147579
RightShoulder -18.066083 -18.601014 -22.445696
RightArm 12.124785 -17.248043 84.900516
RightForeArm -16.587649 -0.000000 20.328728
RightHand 18.647198 -0.000000 0.878892
RightHandThumb1 -24.326973 -0.000000 -32.862282
LeftUpLeg 11.972468 5.967303 -4.778176
LeftLeg -3.091777 -0.000000 0.000000
LeftFoot -16.999238 16.610345 -15.203444
LeftToeBase 20.356588 -0.000000 -0.000000
RightUpLeg -35.831534 -45.228196 -9.067179
RightLeg 104.609048 -0.000000 -0.000000
RightFoot 27.770148 -23.090580 16.652041
RightToeBase 19.286869 -0.000000 -0.000000
2314
root 6.009159 32.270900 -4.282102 -2.979293 -23.088804 -5.408719
Spine 3.333535 10.646596 1.188494
Head 30.039011 -11.263780 -0.614182
LeftShoulder -16.146780 3.382091 27.294120
LeftArm -9.721141 -23.409855 -73.073001
LeftForeArm -17.820350 0.000000 116.469460
LeftHand 9.301576 -0.000000 -6.962945
LeftHandThumb1 -26.253704 0.000000 33.147579
RightShoulder -18.069440 -18.583075 -22.428839
RightArm 12.124348 -17.278554 84.939265
RightForeArm -16.636287 -0.000000 20.330428
RightHand 18.645239 -0.000000 0.908880
RightHandThumb1 -24.326973 -0.000000 -32.862282
LeftUpLeg 12.009329 5.959804 -4.784665
LeftLeg -3.082849 -0.000000 0.000000
LeftFoot -17.112451 16.647683 -15.374229
LeftToeBase 20.666028 -0.000000 -0.000000
RightUpLeg -35.770370 -44.937456 -9.138894
RightLeg 104.533350 -0.000000 -0.000000
RightFoot 28.117303 -23.039720 16.632824
RightToeBase 18.974840 -0.000000 -0.000000
2315
root 6.006289 32.269513 -4.276357 -3.023295 -23.111016 -5.398965
Spine 3.370098 10.644461 1.148788
Head 30.065741 -11.299468 -0.640494
LeftShoulder -16.120045 3.368639 27.317480
LeftArm -9.697114 -23.466728 -73.110002
LeftForeArm -17.756953 -0.000000 116.461392
LeftHand 9.349163 -0.000000 -6.997737
LeftHandThumb1 -26.253704 0.000000 33.147579
RightShoulder -18.098314 -18.592107 -22.405807
RightArm 12.149863 -17.332528 84.969209
RightForeArm -16.650136 0.000000 20.330887
RightHand 18.659871 -0.000000 1.005992
RightHandThumb1 -24.326973 -0.000000 -32.862282
LeftUpLeg 12.052074 5.942953 -4.796425
LeftLeg -3.063841 -0.000000 0.000000
LeftFoot -17.126949 16.700249 -15.352853
LeftToeBase 20.522109 -0.000000 -0.000000
RightUpLeg -35.681449 -44.638646 -9.243727
RightLeg 104.525086 -0.000000 -0.000000
RightFoot 28.429402 -22.907393 16.617402
RightToeBase 18.692482 -0.000000 -0.000000
2316
root 6.002580 32.268176 -4.270312 -3.069130 -23.138987 -5.391220
Spine 3.408567 10.633372 1.110030
Head 30.084102 -11.300742 -0.652997
LeftShoulder -16.110955 3.345805 27.334553
LeftArm -9.677948 -23.506541 -73.133130
LeftForeArm -17.707845 -0.000000 116.469961
LeftHand 9.308391 0.000000 -6.989834
LeftHandThumb1 -26.253704 0.000000 33.147579
RightShoulder -18.112416 -18.597574 -22.386903
RightArm 12.169286 -17.390980 85.005767
RightForeArm -16.624181 -0.000000 20.347447
RightHand 18.605952 -0.000000 1.001298
RightHandThumb1 -24.326973 -0.000000 -32.862282
LeftUpLeg 12.107085 5.967617 -4.794985
LeftLeg -3.059236 -0.000000 0.000000
LeftFoot -17.148797 16.702688 -15.372783
LeftToeBase 20.481385 -0.000000 -0.000000
RightUpLeg -35.611307 -44.352825 -9.314499
RightLeg 104.559161 -0.000000 -0.000000
RightFoot 28.615517 -22.810263 16.403582
RightToeBase 19.185796 -0.000000 -0.000000
2317
root 5.999948 32.266952 -4.265228 -3.093001 -23.162815 -5.381505
Spine 3.416021 10.623438 1.065664
Head 30.109276 -11.287779 -0.654672
LeftShoulder -16.092016 3.274204 27.351133
LeftArm -9.718921 -23.523835 -73.118958
LeftForeArm -17.662438 0.000000 116.503040
LeftHand 9.247561 0.000000 -6.893073
LeftHandThumb1 -26.253704 0.000000 33.147579
RightShoulder -18.124605 -18.570235 -22.371094
RightArm 12.143927 -17.440078 85.044695
RightForeArm -16.745000 0.000000 20.354725
RightHand 18.599234 -0.000000 0.558396
RightHandThumb1 -24.326973 -0.000000 -32.862282
LeftUpLeg 12.133652 6.001380 -4.797337
LeftLeg -3.037116 -0.000000 0.000000
LeftFoot -17.095942 16.681325 -15.238056
LeftToeBase 20.244283 -0.000000 -0.000000
RightUpLeg -35.576808 -44.084007 -9.331626
RightLeg 104.603927 -0.000000 -0.000000
RightFoot 28.966841 -22.678322 16.016601
RightToeBase 18.462197 -0.000000 -0.000000
2318
root 5.996764 32.265440 -4.259888 -3.111677 -23.178101 -5.366563
Spine 3.413723 10.589530 1.012653
Head 30.128067 -11.261877 -0.661468
LeftShoulder -16.096205 3.261937 27.369158
LeftArm -9.706394 -23.551011 -73.133483
LeftForeArm -17.674529 -0.000000 116.518912
LeftHand 9.205616 -0.000000 -6.909258
LeftHandThumb1 -26.253704 0.000000 33.147579
RightShoulder -18.131640 -18.567425 -22.355091
RightArm 12.143831 -17.508665 85.075981
RightForeArm -16.706607 0.000000 20.378328
RightHand 18.643745 -0.000000 0.510262
RightHandThumb1 -24.326973 -0.000000 -32.862282
LeftUpLeg 12.163707 6.047454 -4.798021
LeftLeg -3.043405 -0.000000 0.000000
LeftFoot -17.076962 16.636811 -15.239142
LeftToeBase 20.175760 -0.000000 -0.000000
RightUpLeg -35.561448 -43.813147 -9.350523
RightLeg 104.711264 -0.000000 -0.000000
RightFoot 28.839247 -22.897833 16.416955
RightToeBase 18.395995 -0.000000 -0.000000
2319
root 5.993418 32.264468 -4.254588 -3.114045 -23.189048 -5.359408
Spine 3.392820 10.549109 0.969333
Head 30.148820 -11.224711 -0.681215
LeftShoulder -16.107466 3.239648 27.361473
LeftArm -9.704604 -23.559983 -73.113358
LeftForeArm -17.636326 0.000000 116.546498
LeftHand 9.175462 -0.000000 -7.039027
LeftHandThumb1 -26.253704 0.000000 33.147579
RightShoulder -18.137117 -18.565784 -22.342059
RightArm 12.127247 -17.546730 85.120325
RightForeArm -16.682044 -0.000000 20.411070
RightHand 18.679800 -0.000000 0.478892
RightHandThumb1 -24.326973 -0.000000 -32.862282
LeftUpLeg 12.189249 6.134136 -4.779391
LeftLeg -3.071000 -0.000000 0.000000
LeftFoot -17.161486 16.512515 -15.429755
LeftToeBase 20.605529 -0.000000 -0.000000
RightUpLeg -35.572882 -43.591207 -9.326048
RightLeg 104.801453 -0.000000 -0.000000
RightFoot 28.751242 -23.057921 16.630457
RightToeBase 18.974719 -0.000000 -0.000000
